<svg width="554" height="277" xmlns="http://www.w3.org/2000/svg" xmlns:xlink="http://www.w3.org/1999/xlink" xml:space="preserve" overflow="hidden"><defs><clipPath id="clip0"><rect x="0" y="0" width="554" height="277"/></clipPath></defs><g clip-path="url(#clip0)"><path d="M550.752-0.556153C552.665-0.556153 554.215 0.994061 554.215 2.90635L554.215 272.981C554.215 274.894 552.665 276.444 550.752 276.444L3.67743 276.444C1.76514 276.444 0.214927 274.894 0.214927 272.981L0.214927 2.90635C0.214927 0.994067 1.76514-0.556147 3.67743-0.556147Z" fill="#F8F9FA"/><text font-family="Arial,Arial_MSFontService,sans-serif" font-weight="700" font-size="20" transform="matrix(0.6925 0 0 0.6925 171.394 21)">Home Device Detector Workflow</text><path d="M114.262 48.475C116.175 48.475 117.725 50.0252 117.725 51.9375L117.725 100.412C117.725 102.325 116.175 103.875 114.262 103.875L38.0875 103.875C36.1752 103.875 34.625 102.325 34.625 100.412L34.625 51.9375C34.625 50.0252 36.1752 48.475 38.0875 48.475Z" stroke="#333333" stroke-width="1.385" fill="#A7C7E7"/><text font-family="Arial,Arial_MSFontService,sans-serif" font-weight="700" font-size="14" transform="matrix(0.6925 0 0 0.6925 50.2062 64)">Audio Data</text><text font-family="Arial,Arial_MSFontService,sans-serif" font-weight="400" font-size="12" transform="matrix(0.6925 0 0 0.6925 42.6725 76)">- </text><text font-family="Arial,Arial_MSFontService,sans-serif" font-weight="400" font-size="12" transform="matrix(0.6925 0 0 0.6925 47.52 76)">Normal Sounds</text><text font-family="Arial,Arial_MSFontService,sans-serif" font-weight="400" font-size="12" transform="matrix(0.6925 0 0 0.6925 56.5225 87)">- </text><text font-family="Arial,Arial_MSFontService,sans-serif" font-weight="400" font-size="12" transform="matrix(0.6925 0 0 0.6925 61.37 87)">Doorbell</text><text font-family="Arial,Arial_MSFontService,sans-serif" font-weight="400" font-size="12" transform="matrix(0.6925 0 0 0.6925 47.52 97)">- </text><text font-family="Arial,Arial_MSFontService,sans-serif" font-weight="400" font-size="12" transform="matrix(0.6925 0 0 0.6925 52.3675 97)">Smoke Alarm</text><path d="M117.725 76.175 152.35 76.175" stroke="#333333" stroke-width="1.385" fill="none"/><path d="M152.35 76.175 145.425 72.7125 145.425 79.6375Z" fill="#333333"/><path d="M356.638 41.55C358.55 41.55 360.1 43.1002 360.1 45.0125L360.1 197.363C360.1 199.275 358.55 200.825 356.638 200.825L155.812 200.825C153.9 200.825 152.35 199.275 152.35 197.363L152.35 45.0125C152.35 43.1002 153.9 41.55 155.812 41.55Z" stroke="#333333" stroke-width="1.385" fill="#FFEECC"/><text font-family="Arial,Arial_MSFontService,sans-serif" font-weight="700" font-size="16" transform="matrix(0.6925 0 0 0.6925 196.67 55)">Edge Impulse Platform</text><path d="M339.325 62.325C341.237 62.325 342.788 63.8752 342.788 65.7875L342.788 83.1C342.788 85.0123 341.237 86.5625 339.325 86.5625L173.125 86.5625C171.213 86.5625 169.663 85.0123 169.663 83.1L169.663 65.7875C169.663 63.8752 171.213 62.325 173.125 62.325Z" stroke="#333333" stroke-width="0.6925" fill="#FFD699"/><text font-family="Arial,Arial_MSFontService,sans-serif" font-weight="400" font-size="14" transform="matrix(0.6925 0 0 0.6925 201.171 78)">Feature Extraction </text><text font-family="Arial,Arial_MSFontService,sans-serif" font-weight="400" font-size="14" transform="matrix(0.6925 0 0 0.6925 284.271 78)">(</text><text font-family="Arial,Arial_MSFontService,sans-serif" font-weight="400" font-size="14" transform="matrix(0.6925 0 0 0.6925 287.734 78)">MFE</text><text font-family="Arial,Arial_MSFontService,sans-serif" font-weight="400" font-size="14" transform="matrix(0.6925 0 0 0.6925 307.816 78)">)</text><path d="M256.225 86.5625 256.225 96.95" stroke="#333333" stroke-width="1.385" fill="none"/><path d="M256.225 96.95 252.762 90.025 259.688 90.025Z" fill="#333333"/><path d="M339.325 96.95C341.237 96.95 342.788 98.5002 342.788 100.412L342.788 117.725C342.788 119.637 341.237 121.188 339.325 121.188L173.125 121.188C171.213 121.188 169.663 119.637 169.663 117.725L169.663 100.412C169.663 98.5002 171.213 96.95 173.125 96.95Z" stroke="#333333" stroke-width="0.6925" fill="#FFD699"/><text font-family="Arial,Arial_MSFontService,sans-serif" font-weight="400" font-size="14" transform="matrix(0.6925 0 0 0.6925 195.977 112)">Neural Network Architecture</text><path d="M256.225 121.188 256.225 131.575" stroke="#333333" stroke-width="1.385" fill="none"/><path d="M256.225 131.575 252.762 124.65 259.688 124.65Z" fill="#333333"/><path d="M339.325 131.575C341.237 131.575 342.788 133.125 342.788 135.038L342.788 152.35C342.788 154.262 341.237 155.812 339.325 155.812L173.125 155.812C171.213 155.812 169.663 154.262 169.663 152.35L169.663 135.038C169.663 133.125 171.213 131.575 173.125 131.575Z" stroke="#333333" stroke-width="0.6925" fill="#FFD699"/><text font-family="Arial,Arial_MSFontService,sans-serif" font-weight="400" font-size="14" transform="matrix(0.6925 0 0 0.6925 238.566 147)">Training</text><path d="M256.225 155.812 256.225 166.2" stroke="#333333" stroke-width="1.385" fill="none"/><path d="M256.225 166.2 252.762 159.275 259.688 159.275Z" fill="#333333"/><path d="M339.325 166.2C341.237 166.2 342.788 167.75 342.788 169.663L342.788 186.975C342.788 188.887 341.237 190.438 339.325 190.438L173.125 190.438C171.213 190.438 169.663 188.887 169.663 186.975L169.663 169.663C169.663 167.75 171.213 166.2 173.125 166.2Z" stroke="#333333" stroke-width="0.6925" fill="#FFD699"/><text font-family="Arial,Arial_MSFontService,sans-serif" font-weight="400" font-size="14" transform="matrix(0.6925 0 0 0.6925 184.551 181)">Model Conversion </text><text font-family="Arial,Arial_MSFontService,sans-serif" font-weight="400" font-size="14" transform="matrix(0.6925 0 0 0.6925 266.266 181)">(</text><text font-family="Arial,Arial_MSFontService,sans-serif" font-weight="400" font-size="14" transform="matrix(0.6925 0 0 0.6925 269.729 181)">Quantization</text><text font-family="Arial,Arial_MSFontService,sans-serif" font-weight="400" font-size="14" transform="matrix(0.6925 0 0 0.6925 324.436 181)">)</text><path d="M361.887 77.5884 394.725 77.5884" stroke="#333333" stroke-width="1.385" fill="none"/><path d="M401.426 77.5884 394.501 74.1259 394.501 81.0509Z" fill="#333333"/><path d="M522.838 48.475C524.75 48.475 526.3 50.0252 526.3 51.9375L526.3 141.962C526.3 143.875 524.75 145.425 522.838 145.425L405.112 145.425C403.2 145.425 401.65 143.875 401.65 141.962L401.65 51.9375C401.65 50.0252 403.2 48.475 405.112 48.475Z" stroke="#333333" stroke-width="1.385" fill="#D5E8D4"/><text font-family="Arial,Arial_MSFontService,sans-serif" font-weight="700" font-size="16" transform="matrix(0.6925 0 0 0.6925 413.769 62)">TinyML Application</text><path d="M508.987 69.25C510.9 69.25 512.45 70.8002 512.45 72.7125L512.45 93.4875C512.45 95.3998 510.9 96.95 508.987 96.95L418.962 96.95C417.05 96.95 415.5 95.3998 415.5 93.4875L415.5 72.7125C415.5 70.8002 417.05 69.25 418.962 69.25Z" stroke="#333333" stroke-width="0.6925" fill="#97D077"/><text font-family="Arial,Arial_MSFontService,sans-serif" font-weight="400" font-size="12" transform="matrix(0.6925 0 0 0.6925 438.006 87)">Arduino Code</text><path d="M463.975 96.95 463.975 110.8" stroke="#333333" stroke-width="0.6925" fill="none"/><path d="M463.975 110.8 460.512 103.875 467.438 103.875Z" fill="#333333"/><path d="M508.987 110.8C510.9 110.8 512.45 112.35 512.45 114.262L512.45 135.038C512.45 136.95 510.9 138.5 508.987 138.5L418.962 138.5C417.05 138.5 415.5 136.95 415.5 135.038L415.5 114.262C415.5 112.35 417.05 110.8 418.962 110.8Z" stroke="#333333" stroke-width="0.6925" fill="#97D077"/><text font-family="Arial,Arial_MSFontService,sans-serif" font-weight="400" font-size="12" transform="matrix(0.6925 0 0 0.6925 426.926 123)">TinyML Interpreter </text><text font-family="Arial,Arial_MSFontService,sans-serif" font-weight="400" font-size="12" transform="matrix(0.6925 0 0 0.6925 496.176 123)">+</text><text font-family="Arial,Arial_MSFontService,sans-serif" font-weight="400" font-size="12" transform="matrix(0.6925 0 0 0.6925 428.311 133)">On</text><text font-family="Arial,Arial_MSFontService,sans-serif" font-weight="400" font-size="12" transform="matrix(0.6925 0 0 0.6925 439.391 133)">-</text><text font-family="Arial,Arial_MSFontService,sans-serif" font-weight="400" font-size="12" transform="matrix(0.6925 0 0 0.6925 442.161 133)">Device Memory</text><path d="M454.973 152.35C456.12 152.35 457.05 153.28 457.05 154.428L457.05 171.048C457.05 172.195 456.12 173.125 454.973 173.125L417.577 173.125C416.43 173.125 415.5 172.195 415.5 171.048L415.5 154.428C415.5 153.28 416.43 152.35 417.577 152.35Z" stroke="#333333" stroke-width="0.6925" fill="#B9E0A5"/><text font-family="Arial,Arial_MSFontService,sans-serif" font-weight="400" font-size="12" transform="matrix(0.6925 0 0 0.6925 426.926 166)">Input</text><path d="M510.372 152.35C511.52 152.35 512.45 153.28 512.45 154.428L512.45 171.048C512.45 172.195 511.52 173.125 510.372 173.125L472.978 173.125C471.83 173.125 470.9 172.195 470.9 171.048L470.9 154.428C470.9 153.28 471.83 152.35 472.978 152.35Z" stroke="#333333" stroke-width="0.6925" fill="#B9E0A5"/><text font-family="Arial,Arial_MSFontService,sans-serif" font-weight="400" font-size="12" transform="matrix(0.6925 0 0 0.6925 479.21 166)">Output</text><path d="M436.275 138.5 436.275 152.35" stroke="#333333" stroke-width="0.6925" fill="none"/><path d="M491.675 138.5 491.675 152.35" stroke="#333333" stroke-width="0.6925" fill="none"/><path d="M446.663 186.975C448.575 186.975 450.125 188.525 450.125 190.438L450.125 225.062C450.125 226.975 448.575 228.525 446.663 228.525L384.337 228.525C382.425 228.525 380.875 226.975 380.875 225.062L380.875 190.438C380.875 188.525 382.425 186.975 384.337 186.975Z" stroke="#333333" stroke-width="1.385" fill="#D4BBF9"/><text font-family="Arial,Arial_MSFontService,sans-serif" font-weight="400" font-size="14" transform="matrix(0.6925 0 0 0.6925 389.878 204)">Microphone</text><text font-family="Arial,Arial_MSFontService,sans-serif" font-weight="400" font-size="12" transform="matrix(0.6925 0 0 0.6925 401.65 218)">Sensor</text><path d="M543.612 186.975C545.525 186.975 547.075 188.525 547.075 190.438L547.075 225.062C547.075 226.975 545.525 228.525 543.612 228.525L481.288 228.525C479.375 228.525 477.825 226.975 477.825 225.062L477.825 190.438C477.825 188.525 479.375 186.975 481.288 186.975Z" stroke="#333333" stroke-width="1.385" fill="#D4BBF9"/><text font-family="Arial,Arial_MSFontService,sans-serif" font-weight="400" font-size="14" transform="matrix(0.6925 0 0 0.6925 485.789 204)">LED System</text><text font-family="Arial,Arial_MSFontService,sans-serif" font-weight="400" font-size="12" transform="matrix(0.6925 0 0 0.6925 487.866 218)">Visualisation</text><path d="M436.275 173.125 415.5 186.975" stroke="#333333" stroke-width="0.6925"/><path d="M491.675 173.125 512.45 186.975" stroke="#333333" stroke-width="0.6925"/><path d="M148.82 198.055C148.82 218.83 221.347 232.68 263.654 232.68 305.961 232.68 366.4 218.83 366.4 198.055" stroke="#FF6666" stroke-width="1.385" fill="none"/><text fill="#CC0000" font-family="Arial,Arial_MSFontService,sans-serif" font-weight="400" font-size="14" transform="matrix(0.6925 0 0 0.6925 185.59 215)">Model Iterations and Refinement</text></g></svg>